<svg width="176" height="32" viewBox="0 0 176 32" fill="none" xmlns="http://www.w3.org/2000/svg">
<path d="M41.6663 31.7936L72.2835 2.76379H92.9218L62.985 31.7936H41.6663Z" fill="#74B2DC"/>
<path d="M73.6537 29.2362L104.271 0.206421H124.909L94.9723 29.2362H73.6537Z" fill="#74B2DC"/>
<path d="M2.2157 5.23425H4.62195V21.1073L15.286 5.23425H17.952V25.2772H15.5458V9.44519L4.86804 25.2772H2.2157V5.23425ZM22.3817 25.2772V5.23425H25.0341V13.4647H35.452V5.23425H38.1044V25.2772H35.452V15.83H25.0341V25.2772H22.3817ZM47.6337 25.2772V7.59949H41.0302V5.23425H56.9169V7.59949H50.286V25.2772H47.6337ZM59.7059 25.2772V5.23425H74.1981V7.59949H62.3583V13.7382H73.4462V16.0897H62.3583V22.912H74.663V25.2772H59.7059ZM78.327 25.2772V5.23425H85.8876C87.2183 5.23425 88.2346 5.29806 88.9364 5.42566C89.9208 5.58972 90.7456 5.90417 91.411 6.36902C92.0764 6.82475 92.6096 7.46733 93.0106 8.29675C93.4208 9.12618 93.6259 10.0376 93.6259 11.0311C93.6259 12.7356 93.0835 14.1802 91.9989 15.3651C90.9143 16.5409 88.9546 17.1288 86.12 17.1288H80.9794V25.2772H78.327ZM80.9794 14.7635H86.161C87.8746 14.7635 89.0913 14.4445 89.8114 13.8065C90.5315 13.1685 90.8915 12.2707 90.8915 11.1132C90.8915 10.2746 90.6773 9.55912 90.2489 8.96667C89.8296 8.36511 89.2736 7.96863 88.5809 7.77722C88.1343 7.65873 87.3094 7.59949 86.1063 7.59949H80.9794V14.7635ZM103.921 7.6405V5.07019H106.409V7.6405C108.961 7.77722 110.975 8.5474 112.452 9.95105C113.929 11.3456 114.667 13.0819 114.667 15.16C114.667 17.1926 113.951 18.9198 112.52 20.3417C111.089 21.7635 109.052 22.5474 106.409 22.6932V25.2772H103.921V22.6932C101.551 22.6021 99.5777 21.882 98.0009 20.5331C96.424 19.175 95.6356 17.384 95.6356 15.16C95.6356 12.927 96.4195 11.1405 97.9872 9.80066C99.564 8.46082 101.542 7.74076 103.921 7.6405ZM106.409 9.91003V20.41C108.123 20.328 109.472 19.8313 110.456 18.9198C111.44 18.0083 111.932 16.7551 111.932 15.16C111.932 13.5923 111.449 12.3527 110.483 11.4413C109.517 10.5207 108.159 10.0103 106.409 9.91003ZM103.921 9.92371C102.271 9.99662 100.936 10.4843 99.9149 11.3866C98.8941 12.2889 98.3837 13.5468 98.3837 15.16C98.3837 16.7551 98.885 18.0083 99.8876 18.9198C100.899 19.8313 102.244 20.3234 103.921 20.3964V9.92371ZM118.03 25.2772V5.23425H132.522V7.59949H120.682V13.7382H131.77V16.0897H120.682V22.912H132.987V25.2772H118.03ZM136.692 5.23425H139.099V21.1073L149.763 5.23425H152.429V25.2772H150.022V9.44519L139.345 25.2772H136.692V5.23425ZM146.659 0.462769H148.341C148.204 1.60209 147.785 2.47709 147.083 3.08777C146.39 3.69845 145.465 4.00378 144.307 4.00378C143.141 4.00378 142.207 3.703 141.505 3.10144C140.812 2.49076 140.397 1.61121 140.261 0.462769H141.942C142.07 1.08256 142.321 1.5474 142.694 1.8573C143.077 2.15808 143.587 2.30847 144.225 2.30847C144.964 2.30847 145.52 2.16264 145.893 1.87097C146.276 1.57019 146.531 1.10079 146.659 0.462769ZM171.077 18.2499L173.729 18.9198C173.173 21.0982 172.171 22.7616 170.722 23.91C169.281 25.0494 167.518 25.619 165.431 25.619C163.27 25.619 161.511 25.1815 160.153 24.3065C158.804 23.4224 157.774 22.1464 157.063 20.4784C156.362 18.8104 156.011 17.0194 156.011 15.1053C156.011 13.0181 156.407 11.1997 157.2 9.65027C158.002 8.09167 159.137 6.91134 160.604 6.10925C162.081 5.29806 163.703 4.89246 165.472 4.89246C167.477 4.89246 169.163 5.40287 170.53 6.42371C171.897 7.44454 172.85 8.88009 173.388 10.7303L170.776 11.3456C170.311 9.88725 169.637 8.8254 168.753 8.16003C167.869 7.49467 166.757 7.16199 165.417 7.16199C163.877 7.16199 162.587 7.53113 161.548 8.26941C160.518 9.00769 159.793 10.0012 159.374 11.2499C158.955 12.4895 158.745 13.7701 158.745 15.0917C158.745 16.7961 158.991 18.2863 159.483 19.5624C159.985 20.8293 160.759 21.7772 161.807 22.4061C162.856 23.035 163.99 23.3495 165.212 23.3495C166.697 23.3495 167.955 22.9211 168.985 22.0643C170.015 21.2076 170.712 19.9361 171.077 18.2499Z" fill="#181889"/>
</svg>
